<svg id="Layer_1" data-name="Layer 1" xmlns="http://www.w3.org/2000/svg" viewBox="0 0 180 180"><defs><style>.cls-1{fill:#0055b8;}</style></defs><polygon class="cls-1" points="89.93 0 110.81 8.45 90.07 17.24 69.19 8.79 89.93 0"/><polygon class="cls-1" points="89.93 162.76 110.81 171.21 90.07 180 69.19 171.55 89.93 162.76"/><polygon class="cls-1" points="26.31 26.41 47.05 17.62 38.6 38.5 17.86 47.29 26.31 26.41"/><polygon class="cls-1" points="141.4 141.5 162.14 132.71 153.69 153.59 132.94 162.38 141.4 141.5"/><polygon class="cls-1" points="0 90.07 8.45 69.19 17.24 89.93 8.79 110.81 0 90.07"/><polygon class="cls-1" points="162.76 90.07 171.21 69.19 180 89.93 171.55 110.81 162.76 90.07"/><polygon class="cls-1" points="26.41 153.69 17.62 132.94 38.5 141.4 47.29 162.14 26.41 153.69"/><polygon class="cls-1" points="141.5 38.6 132.71 17.86 153.59 26.31 162.38 47.05 141.5 38.6"/><polygon class="cls-1" points="117.94 58.74 107.9 46.88 92.42 48.14 99.99 29.89 115.48 28.64 125.52 40.49 117.94 58.74"/><polygon class="cls-1" points="62.06 121.26 72.1 133.12 87.58 131.86 80.01 150.1 64.52 151.36 54.48 139.51 62.06 121.26"/><polygon class="cls-1" points="87.66 48.14 72.17 46.85 62.11 58.69 54.56 40.44 64.63 28.6 80.11 29.88 87.66 48.14"/><polygon class="cls-1" points="92.34 131.86 107.83 133.15 117.89 121.31 125.44 139.56 115.37 151.4 99.89 150.12 92.34 131.86"/><polygon class="cls-1" points="58.74 62.06 46.88 72.1 48.14 87.58 29.89 80.01 28.64 64.52 40.49 54.48 58.74 62.06"/><polygon class="cls-1" points="121.26 117.94 133.12 107.9 131.86 92.42 150.1 99.99 151.36 115.48 139.51 125.52 121.26 117.94"/><polygon class="cls-1" points="48.14 92.34 46.85 107.83 58.69 117.89 40.44 125.44 28.6 115.37 29.88 99.89 48.14 92.34"/><polygon class="cls-1" points="131.86 87.66 133.15 72.17 121.31 62.11 139.56 54.56 151.4 64.63 150.12 80.11 131.86 87.66"/></svg>